<?xml version="1.0" standalone="no"?>
<!DOCTYPE svg PUBLIC "-//W3C//DTD SVG 20010904//EN"
 "http://www.w3.org/TR/2001/REC-SVG-20010904/DTD/svg10.dtd">
<svg version="1.0" xmlns="http://www.w3.org/2000/svg"
 width="260.000000pt" height="260.000000pt" viewBox="0 0 260.000000 260.000000"
 preserveAspectRatio="xMidYMid meet">
<metadata>
Created by potrace 1.11, written by Peter Selinger 2001-2013
</metadata>
<g transform="translate(0.000000,260.000000) scale(0.100000,-0.100000)"
fill="#000000" stroke="none">
<path d="M1809 1989 c-230 -30 -428 -166 -523 -360 -61 -127 -80 -224 -73
-383 16 -380 244 -605 644 -632 96 -7 246 8 336 33 51 14 57 18 57 42 -1 31
-35 200 -43 207 -3 3 -31 -3 -63 -12 -41 -13 -94 -18 -174 -18 -163 -1 -230
23 -321 113 -74 74 -101 131 -120 250 -12 83 0 191 31 275 43 113 163 209 298
237 73 15 208 6 289 -19 l62 -20 10 32 c24 75 51 198 46 206 -16 25 -223 61
-335 59 -30 -1 -85 -5 -121 -10z"/>
<path d="M710 1512 c0 -384 -3 -467 -15 -510 -32 -108 -105 -151 -233 -138
-37 4 -78 8 -92 9 -24 2 -25 0 -40 -116 l-16 -117 36 -10 c60 -18 230 -24 305
-11 174 30 274 114 328 274 21 59 22 84 25 570 l3 507 -150 0 -151 0 0 -458z"/>
</g>
</svg>
